<?xml version="1.0" encoding="UTF-8"?>
<svg version="1.1" xmlns="http://www.w3.org/2000/svg" width="63" height="23">
<path d="M0 0 C0.59167969 0.23976562 1.18335937 0.47953125 1.79296875 0.7265625 C3.71934887 1.47899805 3.71934887 1.47899805 5.79296875 1.7265625 C6.49808594 1.30890625 7.20320313 0.89125 7.9296875 0.4609375 C11.26430966 -0.39432712 11.67601613 -0.10723717 14.53515625 1.54296875 C15.92490154 2.43979291 17.30226103 3.35604162 18.66796875 4.2890625 C19.69083984 4.95518555 19.69083984 4.95518555 20.734375 5.63476562 C22.77293364 6.97244839 24.78267258 8.34688002 26.79296875 9.7265625 C27.47520508 10.17241699 28.15744141 10.61827148 28.86035156 11.07763672 C30.55895899 12.21673807 32.18392078 13.46411103 33.79296875 14.7265625 C33.79296875 15.7165625 33.79296875 16.7065625 33.79296875 17.7265625 C29.07275195 16.12587241 25.29913418 13.52702052 21.23046875 10.7265625 C19.91813366 9.8285815 18.6043726 8.93268022 17.2890625 8.0390625 C16.71341553 7.64332031 16.13776855 7.24757813 15.54467773 6.83984375 C11.92809523 4.47642038 11.92809523 4.47642038 7.79296875 3.7265625 C7.79296875 4.3865625 7.79296875 5.0465625 7.79296875 5.7265625 C8.81970703 6.09974609 8.81970703 6.09974609 9.8671875 6.48046875 C13.2907361 7.93856221 16.43296118 9.73650773 19.60546875 11.6640625 C20.20294922 12.01146484 20.80042969 12.35886719 21.41601562 12.71679688 C23.125 13.75390625 23.125 13.75390625 25.79296875 15.7265625 C25.79296875 16.7165625 25.79296875 17.7065625 25.79296875 18.7265625 C22.86417504 18.09896385 20.43201246 17.14033591 17.79296875 15.7265625 C17.79296875 15.0665625 17.79296875 14.4065625 17.79296875 13.7265625 C16.67921875 13.2934375 16.67921875 13.2934375 15.54296875 12.8515625 C13.22557078 11.90353606 11.0137976 10.87810339 8.79296875 9.7265625 C8.79296875 9.0665625 8.79296875 8.4065625 8.79296875 7.7265625 C7.90609375 7.4378125 7.01921875 7.1490625 6.10546875 6.8515625 C2.79296875 5.7265625 2.79296875 5.7265625 0.61328125 4.3359375 C-2.77187614 3.60451845 -3.32235058 4.06217911 -6.203125 5.796875 C-7.69612488 6.79663983 -9.1763006 7.81576468 -10.64453125 8.8515625 C-11.75151367 9.60179687 -11.75151367 9.60179687 -12.88085938 10.3671875 C-15.60601025 12.21786774 -18.30954788 14.09839713 -21.00830078 15.98730469 C-24.99146693 18.7265625 -24.99146693 18.7265625 -27.20703125 18.7265625 C-27.01953125 16.9140625 -27.01953125 16.9140625 -26.20703125 14.7265625 C-22.02845982 11.7265625 -22.02845982 11.7265625 -19.20703125 11.7265625 C-19.20703125 8.7565625 -19.20703125 5.7865625 -19.20703125 2.7265625 C-16.89703125 2.7265625 -14.58703125 2.7265625 -12.20703125 2.7265625 C-12.20703125 3.7165625 -12.20703125 4.7065625 -12.20703125 5.7265625 C-11.5315625 5.28183594 -10.85609375 4.83710937 -10.16015625 4.37890625 C-9.268125 3.81300781 -8.37609375 3.24710937 -7.45703125 2.6640625 C-6.5753125 2.09558594 -5.69359375 1.52710938 -4.78515625 0.94140625 C-2.20703125 -0.2734375 -2.20703125 -0.2734375 0 0 Z M-16.20703125 5.7265625 C-15.87703125 6.7165625 -15.54703125 7.7065625 -15.20703125 8.7265625 C-14.87703125 7.7365625 -14.54703125 6.7465625 -14.20703125 5.7265625 C-14.86703125 5.7265625 -15.52703125 5.7265625 -16.20703125 5.7265625 Z " fill="#F1BF69" transform="translate(29.20703125,2.2734375)"/>
</svg>
